<svg width="24" height="25" viewBox="0 0 24 25" fill="none" xmlns="http://www.w3.org/2000/svg">
<mask id="mask0_58728_3515" style="mask-type:alpha" maskUnits="userSpaceOnUse" x="0" y="0" width="24" height="25">
<rect y="0.68457" width="24" height="24" fill="#D9D9D9"/>
</mask>
<g mask="url(#mask0_58728_3515)">
<path d="M3.66665 20.6846C3.21665 20.6846 2.82638 20.5193 2.49583 20.1887C2.16528 19.8582 2 19.4679 2 19.0179V6.35122C2 5.90122 2.16528 5.51095 2.49583 5.1804C2.82638 4.84985 3.21665 4.68457 3.66665 4.68457H20.3334C20.7834 4.68457 21.1736 4.84985 21.5042 5.1804C21.8347 5.51095 22 5.90122 22 6.35122V19.0179C22 19.4679 21.8347 19.8582 21.5042 20.1887C21.1736 20.5193 20.7834 20.6846 20.3334 20.6846H3.66665ZM12 13.3179L20.3334 7.93455V6.35122L12 11.6512L3.66665 6.35122V7.93455L12 13.3179Z" fill="white"/>
</g>
</svg>
